<svg width="80" height="80" viewBox="0 0 80 80" fill="none" xmlns="http://www.w3.org/2000/svg"><g clip-path="url(#clip0_761_9815)"><path d="M79.07 38.8027C79.07 60.5762 62.0114 76.6954 40.005 76.6954C36.0529 76.6954 32.2607 76.1744 28.6964 75.1945C28.0037 75.003 27.2675 75.0573 26.6103 75.3465L18.8561 78.7696C16.8283 79.6656 14.5389 78.2229 14.4709 76.0066L14.2577 69.0567C14.2311 68.2011 13.8462 67.3998 13.2078 66.8305C5.60652 60.0325 0.940002 50.1922 0.940002 38.8027C0.940002 17.0302 17.9986 0.91 40.005 0.91C62.0114 0.91 79.07 17.0302 79.07 38.8027Z" fill="#0866FF"/><path d="M50.612 49.7107L64.2129 28.6911C65.5806 26.5784 63.0475 24.1193 60.9762 25.5481L46.7783 35.341C46.2997 35.6716 45.6691 35.6805 45.1817 35.3647L32.5804 27.2119C31.5137 26.5221 30.0897 26.827 29.4 27.8937L15.7981 48.9143C14.4304 51.027 16.9635 53.4861 19.0347 52.0572L33.2356 42.2634C33.7142 41.9328 34.3448 41.9239 34.8332 42.2397L47.4325 50.3925C48.4993 51.0823 49.9232 50.7774 50.613 49.7107H50.612Z" fill="white"/></g><defs><clipPath id="clip0_761_9815"><rect width="80" height="80" fill="white"/></clipPath></defs></svg>
